<?xml version="1.0" encoding="utf-8"?><svg xmlns="http://www.w3.org/2000/svg" xmlns:xlink="http://www.w3.org/1999/xlink"><symbol fill="none" viewBox="0 0 52 19" id="logo" xmlns="http://www.w3.org/2000/svg"><path d="M14.55 18h-4.09v-7.125H4.403V18H.29V.937h4.113v6.774h6.059V.937h4.09V18zM32.948.937v11.168c0 1.266-.27 2.364-.809 3.293-.539.922-1.312 1.625-2.32 2.11-1.008.484-2.2.726-3.574.726-2.078 0-3.715-.539-4.91-1.617-1.196-1.078-1.805-2.555-1.828-4.43V.938h4.136V12.27c.047 1.867.914 2.8 2.602 2.8.851 0 1.496-.234 1.933-.703.438-.469.657-1.23.657-2.285V.937h4.113zM37.925 18V.937h6.129c2.195 0 3.863.403 5.004 1.208 1.148.804 1.723 1.972 1.723 3.503 0 .883-.204 1.637-.61 2.262s-1.004 1.086-1.793 1.383c.89.234 1.574.672 2.05 1.313.478.64.716 1.421.716 2.343 0 1.672-.532 2.93-1.594 3.774-1.055.836-2.621 1.261-4.7 1.277h-6.925zm4.113-7.254v4.09h2.696c.742 0 1.312-.168 1.71-.504.399-.344.598-.824.598-1.441 0-1.422-.707-2.137-2.12-2.145h-2.884zm0-2.695h2.145c.898-.008 1.539-.172 1.922-.492s.574-.793.574-1.418c0-.72-.207-1.235-.621-1.547-.414-.32-1.082-.48-2.004-.48h-2.016V8.05z" fill="#7F7FD5"/></symbol></svg>