<svg width="378" height="298" viewBox="0 0 378 298" fill="none" xmlns="http://www.w3.org/2000/svg">
<g clip-path="url(#clip0)">
<path d="M365.478 196.785C342.813 264.919 302.016 292.164 227.02 292.164C152.023 292.164 9.07617 180.896 9.07617 106.748C9.07617 32.5997 103.192 77.8427 217.011 24.6552C330.785 -28.4873 388.188 128.696 365.478 196.785Z" fill="#BCBCFF" fill-opacity="0.2"/>
<path opacity="0.18" d="M0.182993 209.321C3.67096 176.429 19.2726 160.172 52.9268 152.82C86.581 145.469 161.62 181.518 168.925 214.882C176.231 248.245 129.568 237.124 83.7529 272.183C37.9379 307.29 -3.30498 242.213 0.182993 209.321Z" fill="#C7C7FF"/>
</g>
<path opacity="0.4" fill-rule="evenodd" clip-rule="evenodd" d="M184.57 71.8358C169.078 69.8237 152.941 72.6322 142.836 75.8476L142.814 75.8546L142.792 75.8608C119.184 82.4874 103.715 94.4876 94.7815 109.454C85.8367 124.439 83.3544 142.547 86.0116 161.526C91.3316 199.526 117.22 240.693 152.155 266.201C186.751 291.462 226.729 283.271 252.849 263.492C265.91 253.602 275.386 240.894 278.98 228.192C282.557 215.551 280.325 202.917 269.969 192.83C248.331 171.754 241.21 157.739 237.084 143.797C235.872 139.701 234.928 135.667 233.952 131.499C231.607 121.484 229.081 110.69 222.219 96.3781C214.664 80.6212 200.043 73.8454 184.57 71.8358ZM184.914 69.1887C200.907 71.2658 216.541 78.361 224.626 95.224C231.619 109.811 234.251 121.043 236.619 131.148C237.579 135.248 238.496 139.162 239.644 143.04C243.617 156.468 250.46 170.101 271.831 190.917C282.98 201.776 285.356 215.464 281.549 228.919C277.759 242.312 267.861 255.473 254.46 265.62C227.656 285.918 186.363 294.484 150.581 268.357C115.137 242.478 88.8003 200.699 83.368 161.896C80.6489 142.475 83.1588 123.717 92.4894 108.086C101.828 92.4413 117.911 80.0771 142.048 73.2969C152.425 69.9987 168.951 67.1154 184.914 69.1887Z" fill="#D4D4FF"/>
<path d="M202.279 32.6128C202.906 31.1325 204.358 30.1709 205.966 30.1709H320.152C323.02 30.1709 324.958 33.0969 323.839 35.7371L285.34 126.594C284.713 128.075 283.261 129.036 281.653 129.036H167.467C164.6 129.036 162.662 126.11 163.78 123.47L202.279 32.6128Z" fill="#FAFDFF" fill-opacity="0.4"/>
<path d="M135.281 185.083L141.421 170.498C141.526 170.251 141.768 170.09 142.036 170.09H205.102C205.579 170.09 205.902 170.576 205.717 171.016L199.576 185.6C199.472 185.848 199.23 186.009 198.961 186.009H135.896C135.418 186.009 135.095 185.522 135.281 185.083Z" fill="#9090E7"/>
<path d="M238.976 119.727C239.2 119.271 239.665 118.981 240.173 118.981H298.919C299.908 118.981 300.553 120.018 300.117 120.905L276.295 169.344C276.07 169.801 275.606 170.09 275.097 170.09H216.351C215.362 170.09 214.717 169.053 215.153 168.166L238.976 119.727Z" fill="white"/>
<path d="M211.606 177.818C211.831 177.361 212.295 177.072 212.804 177.072H271.55C272.539 177.072 273.184 178.109 272.748 178.996L248.926 227.435C248.701 227.891 248.237 228.181 247.728 228.181H188.982C187.993 228.181 187.348 227.144 187.784 226.257L211.606 177.818Z" fill="white"/>
<path d="M273.414 128.617C261.461 122.026 252.701 127.919 249.815 131.689C242.554 138.252 235.99 159.618 249.815 160.455C263.639 161.293 288.356 136.856 273.414 128.617Z" fill="#D7D7FF"/>
<path d="M246.045 186.707C234.092 180.116 225.332 186.009 222.446 189.779C215.184 196.342 208.621 217.707 222.446 218.545C236.27 219.383 260.986 194.946 246.045 186.707Z" fill="#D7D7FF"/>
<path d="M229.985 188.824C227.527 189.271 226.448 192.454 226.215 193.99C227.751 194.689 229.985 191.477 229.985 193.292C229.985 195.107 233.895 194.968 235.431 196.224C236.967 197.481 235.012 198.319 233.895 198.598C232.778 198.878 232.778 200.414 232.638 201.67C232.499 202.927 235.71 203.905 237.526 203.905C239.341 203.905 240.877 211.166 242.413 208.373C243.949 205.58 241.715 200.274 240.877 199.436C240.039 198.598 238.922 196.085 238.782 194.968C238.643 193.851 239.062 188.824 237.526 187.986C235.99 187.148 233.057 188.265 229.985 188.824Z" fill="#6868A6"/>
<path d="M224.123 199.576C222.894 198.459 227.148 192.873 229.429 190.22C229.801 190.871 230.685 192.538 231.244 193.99C231.942 195.805 234.316 194.549 235.712 196.643C237.109 198.738 234.316 199.576 233.478 199.576C232.64 199.576 233.618 202.089 235.712 202.648C237.807 203.206 242.555 206.977 242.136 208.373C241.717 209.769 233.059 216.171 231.802 215.612C230.797 215.166 230.871 210.98 230.546 209.49C229.242 210.654 226.133 212.897 224.123 212.562C222.112 212.227 224.122 207.209 225.379 204.742L227.753 200.832C227.055 200.879 225.351 200.693 224.123 199.576Z" fill="#BCBCFF"/>
<path d="M215.604 213.54C218.396 212.088 223.284 206.419 225.378 203.766C226.356 203.766 222.865 209.631 224.401 211.865C225.63 213.652 230.964 207.676 233.477 204.464C233.059 205.162 232.137 207.173 231.802 209.631C231.467 212.088 233.617 213.82 234.734 214.378C232.779 215.728 227.668 218.428 222.865 218.428C218.061 218.428 216.022 215.17 215.604 213.54Z" fill="#9090E7"/>
<path d="M253.026 141.882C253.138 140.877 255.586 136.809 256.797 134.9C262.522 131.689 263.918 135.878 264.197 137.135C264.421 138.14 262.056 141.184 260.846 142.581L257.774 143.977C256.145 143.698 252.915 142.888 253.026 141.882Z" fill="#BCBCFF"/>
<path d="M259.311 148.167L258.474 145.374H254.284C254.005 146.026 253.419 147.692 253.307 149.144C253.195 150.597 257.263 149.098 259.311 148.167Z" fill="#BCBCFF"/>
<path d="M249.954 146.212C249.284 145.653 251.537 142.441 252.747 140.905C254.004 140.905 256.657 142.581 257.634 143.14C258.612 143.698 260.567 140.905 262.103 140.905C263.639 140.905 261.125 142.581 260.567 144.117C260.008 145.653 250.792 146.91 249.954 146.212Z" fill="#8989D7"/>
<path d="M259.869 136.298C258.752 137.08 256.797 134.948 255.959 133.784C259.31 126.383 262.243 129.735 265.036 130.293C267.828 130.852 267.13 133.784 266.711 136.298C266.376 138.309 264.151 139.37 263.081 139.649C263.174 138.997 263.304 137.415 263.081 136.298C262.801 134.901 261.265 135.32 259.869 136.298Z" fill="#6868A6"/>
<path d="M266.85 151.518C264.616 148.836 260.427 147.189 258.891 147.329C258.891 148.781 255.213 149.236 253.445 149.004C248.138 148.585 242.692 152.634 242.134 153.751C241.575 154.869 243.95 160.734 249.954 160.734C254.983 160.734 269.643 154.869 266.85 151.518Z" fill="#9090E7"/>
<path d="M188.596 8.31493C189.223 6.83463 190.675 5.87305 192.282 5.87305H306.468C309.336 5.87305 311.274 8.79901 310.155 11.4393L271.656 102.296C271.029 103.777 269.577 104.738 267.97 104.738H153.784C150.916 104.738 148.978 101.812 150.097 99.1721L188.596 8.31493Z" fill="#FAFDFF"/>
<path d="M224.258 32.4046C222.806 23.5793 214.809 21.0006 210.992 20.8145C200.1 20.8145 193.121 26.5397 190.046 31.4271C185.505 38.6461 183.902 60.4723 199.961 58.657C216.019 56.8416 226.073 43.4362 224.258 32.4046Z" fill="#BCBCFF"/>
<path d="M198.846 37.1523C201.08 31.0081 204.432 30.1237 205.828 30.4495C209.626 29.7792 210.203 34.6387 210.017 37.1523L207.783 41.7605C207.736 42.4122 207.532 44.0785 207.085 45.5308C206.638 46.9831 203.733 47.6254 202.337 47.765V43.7155C201.871 43.8551 200.522 44.0506 198.846 43.7155C196.751 43.2966 196.053 44.8325 198.846 37.1523Z" fill="#DFBAC2"/>
<path d="M202.895 31.9865C201.666 31.9865 201.545 30.3108 201.638 29.4729C198.566 25.8423 207.782 24.4459 208.62 25.8423C209.458 27.2387 211.413 27.2387 213.647 29.4729C215.435 31.2603 212.902 35.3378 211.413 37.1532C210.529 37.6652 208.872 38.382 209.318 37.1532C209.877 35.6171 207.224 31.9865 206.526 31.9865H202.895Z" fill="#743C2A"/>
<path d="M199.825 48.1843C198.373 46.6204 201.175 45.9501 202.757 45.8105C202.757 48.4636 204.991 47.3465 206.667 45.8105C208.008 44.5816 208.715 44.2744 208.901 44.2744C208.948 44.7864 209.013 46.1177 208.901 47.3465C208.762 48.8825 201.64 50.1393 199.825 48.1843Z" fill="white"/>
<path d="M217.978 47.0663C215.855 44.3852 211.135 44.3666 209.041 44.6925C208.808 45.4838 207.672 47.2898 204.991 48.1836C202.31 49.0773 201.64 47.0665 201.64 45.9493C195.077 43.1565 188.793 49.58 188.793 51.5349C188.793 53.4899 192.144 56.7016 199.406 58.098C206.667 59.4944 220.631 50.4177 217.978 47.0663Z" fill="#7C7CC2"/>
<path d="M240.041 24.8643L231.662 46.7878H282.491L289.892 24.8643H240.041Z" fill="#E0E0FF"/>
<path d="M242.553 33.1033V30.1709H282.49V33.1033H242.553Z" fill="#9090E7"/>
<path d="M240.459 37.9901V34.918H262.522V37.9901H240.459Z" fill="#9090E7"/>
<path d="M238.783 42.7381V39.666H247.441V42.7381H238.783Z" fill="#9090E7"/>
<path d="M209.739 119.819L135.73 118.423L123.162 144.954H197.451L209.739 119.819Z" fill="#BCBCFF"/>
<path fill-rule="evenodd" clip-rule="evenodd" d="M199.991 150.14L211.891 125.232L212.614 125.578L200.496 150.941H121.486V150.14H199.991Z" fill="#6868A6"/>
<path d="M188.932 120.518C187.815 120.518 183.16 123.497 180.972 124.986C179.111 127.081 175.135 131.41 174.13 131.968C172.873 132.666 180.972 141.743 182.229 141.743C183.486 141.743 195.635 129.734 196.333 128.198C197.031 126.662 190.328 120.518 188.932 120.518Z" fill="#9090E7"/>
<path d="M182.369 137.554L192.842 127.36L191.166 126.104L182.369 133.644L180.414 130.851L178.18 132.387L182.369 137.554Z" fill="white"/>
<path d="M184.324 68.4316L180.693 75.6929H217.558L220.072 68.4316H184.324Z" fill="#9090E7"/>
<path fill-rule="evenodd" clip-rule="evenodd" d="M251.817 66.0469L256.842 81.1239L239.631 96.3273L224.627 83.971L239.4 77.3088L251.817 66.0469ZM251.445 67.4649L239.844 77.9869L226.13 84.1716L239.613 95.2748L255.915 80.8745L251.445 67.4649Z" fill="#9090E7"/>
<path fill-rule="evenodd" clip-rule="evenodd" d="M252.265 67.4991L244.166 83.1388L243.455 82.7706L251.554 67.1309L252.265 67.4991Z" fill="#9090E7"/>
<path fill-rule="evenodd" clip-rule="evenodd" d="M243.21 82.5402L233.646 74.889L234.147 74.2637L244.132 82.2522L240.005 96.056L239.238 95.8266L243.21 82.5402Z" fill="#9090E7"/>
<path fill-rule="evenodd" clip-rule="evenodd" d="M256.57 81.5363L243.714 83.2131L225.552 84.7499L225.484 83.952L243.629 82.4167L256.466 80.7422L256.57 81.5363Z" fill="#9090E7"/>
<path d="M174.549 88.54L172.873 91.8914H194.657L196.053 88.54H174.549Z" fill="#D7D7FF"/>
<path d="M180.135 78.4863L175.945 85.4683H191.306L194.936 78.4863H180.135Z" fill="#BCBCFF"/>
<path d="M110.314 291.996C110.314 290.097 111.152 287.574 111.571 286.55H119.67C120.136 287.015 121.262 288.337 122.044 289.901C123.022 291.856 126.233 291.996 131.54 294.37C135.785 296.269 135.729 297.581 135.17 298H111.571C111.152 296.79 110.314 293.895 110.314 291.996Z" fill="#1D316B"/>
<path d="M102.634 292.135C100.065 291.353 98.7705 287.807 98.4447 286.131H89.6474C88.7537 286.131 88.4372 293.485 88.3906 297.162H109.756C109.197 293.392 105.846 293.113 102.634 292.135Z" fill="#1D316B"/>
<path d="M128.327 228.18C129.333 222.036 127.908 185.31 127.071 167.716L101.936 170.788C102.401 177.118 103.332 190.365 103.332 192.711C103.332 195.644 112.409 216.45 112.827 219.103C113.246 221.757 110.872 230.554 109.755 236C108.862 240.357 109.383 271.701 109.755 286.829H120.508C122.695 269.839 127.322 234.324 128.327 228.18Z" fill="#7C7CC2"/>
<path d="M85.7381 216.869C84.2858 213.518 82.5263 185.031 81.8281 171.207H103.333C103.798 178.655 104.701 193.996 104.589 195.784C104.45 198.018 102.635 215.613 102.635 216.869C102.635 218.126 102.216 221.617 102.635 224.131C102.97 226.142 100.726 266.674 99.5624 286.69L89.648 285.991C87.7396 270.259 83.9786 237.564 84.202 232.649C84.4813 226.505 87.5534 221.059 85.7381 216.869Z" fill="#6868A6"/>
<path d="M96.9081 78.9051C97.1315 79.7988 95.5117 84.3976 94.6738 86.5853L111.012 87.5626V83.5131C112.036 84.5372 114.754 85.7195 117.435 82.2563C120.787 77.9273 119.809 60.6122 118.971 60.1932C118.133 59.7743 107.381 65.6392 104.868 66.7563C102.857 67.65 102.168 75.2279 102.075 78.9051C100.259 78.5327 96.6846 78.0114 96.9081 78.9051Z" fill="#DFBAC2"/>
<path d="M178.459 126.244C177.566 128.143 174.084 129.176 172.455 129.456C171.338 129.702 170.36 133.784 171.617 133.645C172.874 133.505 182.649 132.947 184.464 132.667C186.279 132.388 185.86 128.059 185.302 126.244C184.743 124.429 179.576 123.87 178.459 126.244Z" fill="#DFBAC2"/>
<path d="M143.688 124.289C142.125 118.815 132.052 102.924 127.211 95.6625C125.675 94.9643 117.995 94.4057 112.409 98.5949C106.823 102.784 117.436 118.703 119.251 122.334C121.067 125.964 135.45 137.694 139.08 140.766C142.711 143.838 174.828 135.6 172.734 134.343C171.058 133.337 172.035 130.014 172.734 128.478C170.546 128.199 165.109 127.584 160.864 127.361C155.558 127.082 145.643 131.131 143.688 124.289Z" fill="white"/>
<path d="M94.2556 85.8865C93.0268 85.663 90.9508 87.6552 90.0664 88.6793C92.3006 87.8413 109.895 90.2154 110.733 90.2154C111.571 90.2154 115.341 91.4722 115.341 90.2154C115.341 88.9587 113.386 87.7019 111.85 87.283C110.314 86.8641 95.7917 86.1658 94.2556 85.8865Z" fill="white"/>
<path d="M78.4763 110.184C76.5772 95.7734 85.4118 89.8434 90.0665 88.6797C115.09 88.6797 125.349 93.3344 127.35 95.6617L117.715 96.3599C102.634 103.342 124.977 125.405 127.35 128.198C129.724 130.991 134.332 154.45 131.959 164.225C130.059 172.045 95.5124 173.348 78.4763 173.022C82.5258 157.383 80.8502 128.198 78.4763 110.184Z" fill="#9090E7"/>
<circle cx="233.058" cy="73.5985" r="1.53604" fill="#5180EA"/>
<circle cx="251.77" cy="65.7792" r="1.53604" fill="#5180EA"/>
<circle cx="256.518" cy="81.1396" r="1.53604" fill="#FDAC53"/>
<circle cx="239.481" cy="95.9413" r="1.53604" fill="#5180EA"/>
<path d="M102.774 78.4862C101.321 79.8267 96.7692 79.6033 94.6746 79.324C92.3938 75.1349 87.7205 65.6674 87.2737 61.3106C86.7151 55.8647 91.4629 49.3016 94.6746 46.788C97.8863 44.2745 105.567 44.833 107.242 44.9726C108.918 45.1122 109.476 41.0627 116.458 41.4816C123.44 41.9005 121.346 52.5132 121.486 53.6303C121.625 54.7474 124.977 54.0492 124.837 56.7024C124.725 58.8249 118.181 62.9862 114.922 64.8015C115.248 67.5478 115.704 73.2637 114.922 74.1574C113.945 75.2745 112.828 70.9456 111.571 69.2699C110.314 67.5943 109.058 68.9907 107.242 69.2699C105.427 69.5492 104.589 76.8105 102.774 78.4862Z" fill="#743C2A"/>
<circle cx="224.96" cy="84.2108" r="1.53604" fill="#FDAC53"/>
<ellipse cx="231.697" cy="56.1659" rx="2.29932" ry="2.84678" transform="rotate(35.5913 231.697 56.1659)" fill="#BDD0F8"/>
<ellipse cx="242.311" cy="56.1659" rx="2.29932" ry="2.84678" transform="rotate(35.5913 242.311 56.1659)" fill="#BDD0F8"/>
<ellipse cx="252.922" cy="56.1659" rx="2.29932" ry="2.84678" transform="rotate(35.5913 252.922 56.1659)" fill="#BDD0F8"/>
<ellipse cx="263.535" cy="56.1659" rx="2.29932" ry="2.84678" transform="rotate(35.5913 263.535 56.1659)" fill="#FDAC53"/>
<ellipse cx="274.148" cy="56.1659" rx="2.29932" ry="2.84678" transform="rotate(35.5913 274.148 56.1659)" fill="#BDD0F8"/>
<rect x="144.666" y="177.072" width="51.6669" height="2.7928" fill="white"/>
<ellipse cx="148.458" cy="198.382" rx="1.95496" ry="2.51352" transform="rotate(30.2706 148.458 198.382)" fill="#9090E7"/>
<ellipse cx="142.595" cy="212.066" rx="1.95496" ry="2.51352" transform="rotate(30.2706 142.595 212.066)" fill="#BDD0F8"/>
<ellipse cx="137.847" cy="224.913" rx="1.95496" ry="2.51352" transform="rotate(30.2706 137.847 224.913)" fill="#BDD0F8"/>
<ellipse cx="151.81" cy="224.913" rx="1.95496" ry="2.51352" transform="rotate(30.2706 151.81 224.913)" fill="#BDD0F8"/>
<ellipse cx="172.199" cy="212.066" rx="1.95496" ry="2.51352" transform="rotate(30.2706 172.199 212.066)" fill="#BDD0F8"/>
<ellipse cx="157.675" cy="212.066" rx="1.95496" ry="2.51352" transform="rotate(30.2706 157.675 212.066)" fill="#DF8E32"/>
<ellipse cx="167.73" cy="224.913" rx="1.95496" ry="2.51352" transform="rotate(30.2706 167.73 224.913)" fill="#DF8E32"/>
<ellipse cx="133.099" cy="238.039" rx="1.95496" ry="2.51352" transform="rotate(30.2706 133.099 238.039)" fill="#DF8E32"/>
<ellipse cx="183.927" cy="212.066" rx="1.95496" ry="2.51352" transform="rotate(30.2706 183.927 212.066)" fill="#BDD0F8"/>
<ellipse cx="177.226" cy="198.382" rx="1.95496" ry="2.51352" transform="rotate(30.2706 177.226 198.382)" fill="#9090E7"/>
<defs>
<clipPath id="clip0">
<rect width="377.45" height="292.163" fill="white"/>
</clipPath>
</defs>
</svg>
